<svg width="33" height="33" viewBox="0 0 33 33" fill="none" xmlns="http://www.w3.org/2000/svg">
<mask id="mask0_3_413" style="mask-type:alpha" maskUnits="userSpaceOnUse" x="0" y="0" width="33" height="33">
<rect width="33" height="33" fill="#D9D9D9"/>
</mask>
<g mask="url(#mask0_3_413)">
<path d="M24.6971 17.5312V15.4688H29.6683V17.5312H24.6971ZM26.2678 26.786L22.2909 23.8033L23.5443 22.1587L27.5211 25.1413L26.2678 26.786ZM23.4913 10.7885L22.238 9.14378L26.2149 6.1611L27.4683 7.80577L23.4913 10.7885ZM7.21881 25.411V20.0432H5.81734C5.13163 20.0432 4.54593 19.8004 4.06026 19.3148C3.57461 18.8291 3.33179 18.2434 3.33179 17.5577V15.4423C3.33179 14.7566 3.57461 14.1709 4.06026 13.6852C4.54593 13.1996 5.13163 12.9568 5.81734 12.9568H11.1322L17.2933 9.28132V23.7187L11.1322 20.0432H9.28124V25.411H7.21881ZM19.1971 20.7889V12.2111C19.7366 12.6994 20.1711 13.3146 20.5007 14.0567C20.8304 14.7989 20.9952 15.6133 20.9952 16.5C20.9952 17.3867 20.8304 18.2011 20.5007 18.9433C20.1711 19.6854 19.7366 20.3006 19.1971 20.7889ZM5.81734 15.0192C5.71158 15.0192 5.61462 15.0633 5.52646 15.1514C5.43832 15.2396 5.39425 15.3366 5.39425 15.4423V17.5577C5.39425 17.6634 5.43832 17.7604 5.52646 17.8486C5.61462 17.9367 5.71158 17.9808 5.81734 17.9808H11.7034L15.2308 20.0539V12.9461L11.7034 15.0192H5.81734Z" fill="#3C1053"/>
</g>
</svg>
